<?xml version="1.0" encoding="UTF-8" standalone="no"?>
<!DOCTYPE svg PUBLIC "-//W3C//DTD SVG 1.1//EN" "http://www.w3.org/Graphics/SVG/1.1/DTD/svg11.dtd">
<svg width="100%" height="100%" viewBox="0 0 24 24" version="1.1" xmlns="http://www.w3.org/2000/svg" xmlns:xlink="http://www.w3.org/1999/xlink" xml:space="preserve" xmlns:serif="http://www.serif.com/" style="fill-rule:evenodd;clip-rule:evenodd;stroke-linejoin:round;stroke-miterlimit:2;">
    <g id="Layer1" transform="matrix(1,0,0,1,0,2)">
        <g transform="matrix(1,0,0,1,0.283859,0)">
            <path d="M7.543,16.092L19.253,16.092C21.908,16.092 23.505,13.709 23.619,11.29C23.687,9.839 23.22,8.395 22.177,7.466C21.475,6.841 20.51,6.44 19.253,6.44C16.875,6.44 16.899,6.488 15.251,6.44C14.31,6.413 13.454,6.791 12.666,7.398C11.947,7.952 11.282,8.701 10.653,9.461C9.945,10.316 9.283,11.187 8.622,11.766C8.261,12.081 7.912,12.312 7.543,12.344C6.798,12.408 6.319,12.307 6.021,12.073C5.71,11.829 5.633,11.454 5.606,11.109C5.585,10.854 5.591,10.607 5.597,10.395C6.054,10.271 6.814,10.012 7.482,9.54C8.23,9.012 8.859,8.23 8.922,7.112C8.93,6.975 8.881,6.841 8.787,6.742C8.693,6.642 8.562,6.585 8.425,6.584L0.218,6.546C0.07,6.545 -0.07,6.61 -0.166,6.723C-0.261,6.837 -0.302,6.986 -0.276,7.132C-0.276,7.132 0.239,9.98 2.786,10.443C2.807,12.18 2.982,13.77 3.909,14.807C4.605,15.585 5.72,16.092 7.543,16.092ZM7.543,15.092C6.104,15.092 5.204,14.754 4.655,14.141C3.793,13.177 3.783,11.635 3.783,10C3.783,9.735 3.577,9.517 3.313,9.501C1.817,9.411 1.152,8.271 0.879,7.549C0.879,7.549 7.822,7.581 7.822,7.581C7.652,8.078 7.296,8.447 6.905,8.723C6.049,9.328 5.01,9.507 5.01,9.507C4.741,9.554 4.56,9.807 4.601,10.076C4.635,10.294 4.572,10.728 4.609,11.189C4.658,11.797 4.855,12.43 5.404,12.86C5.844,13.204 6.532,13.435 7.63,13.34C8.185,13.292 8.737,12.994 9.281,12.518C9.976,11.909 10.678,10.999 11.423,10.099C12.004,9.397 12.612,8.702 13.277,8.19C13.872,7.731 14.51,7.419 15.222,7.44C16.882,7.487 16.858,7.44 19.253,7.44C20.222,7.44 20.971,7.731 21.512,8.213C22.335,8.946 22.674,10.097 22.62,11.243C22.53,13.149 21.345,15.092 19.253,15.092L7.543,15.092Z"/>
        </g>
        <g transform="matrix(1,0,0,1,0.230246,0)">
            <path d="M15.984,12.135C15.984,12.135 15.864,12.936 16.327,13.421C16.532,13.636 16.845,13.811 17.341,13.812C18.592,13.814 22.66,13.812 22.66,13.812C22.936,13.812 23.16,13.588 23.16,13.312C23.16,13.036 22.936,12.812 22.66,12.812C22.66,12.812 18.593,12.814 17.342,12.812C17.204,12.812 17.107,12.79 17.05,12.73C16.901,12.574 16.969,12.308 16.969,12.308C17.016,12.037 16.835,11.777 16.563,11.729C16.291,11.681 16.032,11.863 15.984,12.135Z"/>
        </g>
        <g transform="matrix(1,0,0,1,-0.471341,1.54681)">
            <circle cx="19.138" cy="9.156" r="0.423"/>
        </g>
    </g>
</svg>
