<?xml version="1.0" encoding="UTF-8" standalone="no"?>
<!DOCTYPE svg PUBLIC "-//W3C//DTD SVG 1.1//EN" "http://www.w3.org/Graphics/SVG/1.1/DTD/svg11.dtd">
<svg width="100%" height="100%" viewBox="0 0 20 20" version="1.1" xmlns="http://www.w3.org/2000/svg" xmlns:xlink="http://www.w3.org/1999/xlink" xml:space="preserve" xmlns:serif="http://www.serif.com/" style="fill-rule:evenodd;clip-rule:evenodd;stroke-linejoin:round;stroke-miterlimit:2;">
    <g transform="matrix(1,0,0,1,0.271046,0)">
        <g transform="matrix(0.867821,0,0,0.867821,3.41598,0.402714)">
            <path d="M9.663,7.842C7.342,7.842 5.457,9.727 5.457,12.048C5.457,14.369 7.342,16.253 9.663,16.253C11.983,16.253 13.868,14.369 13.868,12.048C13.868,9.727 11.983,7.842 9.663,7.842ZM9.663,8.995C11.347,8.995 12.715,10.363 12.715,12.048C12.715,13.733 11.347,15.1 9.663,15.1C7.978,15.1 6.61,13.733 6.61,12.048C6.61,10.363 7.978,8.995 9.663,8.995Z"/>
        </g>
        <g>
            <g transform="matrix(0.867821,0,0,0.867821,-4.68072,0.402714)">
                <path d="M9.771,7.844L9.663,7.842L6.034,7.842C6.002,7.842 5.489,7.864 5.458,8.387C5.457,8.402 5.456,8.483 5.455,8.619C5.45,9.677 5.45,14.547 5.455,15.513C5.456,15.626 5.457,15.694 5.458,15.707C5.478,16.062 5.731,16.167 5.751,16.179C5.763,16.186 5.882,16.252 6.106,16.257C6.571,16.266 8.835,16.253 9.663,16.253C11.983,16.253 13.868,14.369 13.868,12.048C13.868,9.763 12.042,7.901 9.771,7.844ZM6.606,8.995L9.663,8.995C11.347,8.995 12.715,10.363 12.715,12.048C12.715,13.733 11.347,15.1 9.663,15.1C9.008,15.1 7.448,15.109 6.606,15.107C6.603,13.756 6.603,10.353 6.606,8.995Z"/>
            </g>
            <g transform="matrix(1.11943,0,0,1.00775,-2.09042,-2.02752)">
                <path d="M1.917,7.283L1.917,15.911C1.917,16.185 2.117,16.408 2.363,16.408C2.61,16.408 2.81,16.185 2.81,15.911L2.81,7.283C2.81,7.009 2.61,6.787 2.363,6.787C2.117,6.787 1.917,7.009 1.917,7.283Z"/>
            </g>
        </g>
        <g transform="matrix(1.11943,0,0,1.00775,14.103,-2.02752)">
            <path d="M1.917,7.283L1.917,15.911C1.917,16.185 2.117,16.408 2.363,16.408C2.61,16.408 2.81,16.185 2.81,15.911L2.81,7.283C2.81,7.009 2.61,6.787 2.363,6.787C2.117,6.787 1.917,7.009 1.917,7.283Z"/>
        </g>
        <g transform="matrix(1.98664,0,0,1.98664,-15.5625,-17.4946)">
            <circle cx="17.26" cy="15.857" r="0.343"/>
        </g>
    </g>
</svg>
