<?xml version="1.0" encoding="UTF-8" standalone="no"?>
<!DOCTYPE svg PUBLIC "-//W3C//DTD SVG 1.1//EN" "http://www.w3.org/Graphics/SVG/1.1/DTD/svg11.dtd">
<svg width="100%" height="100%" viewBox="0 0 20 20" version="1.1" xmlns="http://www.w3.org/2000/svg" xmlns:xlink="http://www.w3.org/1999/xlink" xml:space="preserve" xmlns:serif="http://www.serif.com/" style="fill-rule:evenodd;clip-rule:evenodd;stroke-linejoin:round;stroke-miterlimit:2;">
    <g transform="matrix(0.909091,0,0,0.909091,3.63636,0.909091)">
        <path d="M13.501,5L5.5,5C5.224,5 5,4.776 5,4.5C5,3.495 5.453,2.714 6.276,2.303C6.551,2.165 6.823,2.09 7.04,2.049C7.253,0.885 8.275,0 9.499,0C10.723,0 11.745,0.885 11.958,2.049C12.176,2.09 12.447,2.165 12.722,2.303C13.538,2.711 13.99,3.481 13.998,4.473C13.999,4.482 13.999,4.491 13.999,4.5C13.999,4.776 13.775,5 13.499,5L13.501,5ZM6.06,4L12.94,4C12.844,3.644 12.633,3.383 12.302,3.21C11.913,3.007 11.502,3 11.497,3C11.221,3 11,2.776 11,2.5C11,1.673 10.327,1 9.5,1C8.673,1 8,1.673 8,2.5C8,2.776 7.776,3 7.5,3C7.499,3 7.087,3.007 6.698,3.21C6.367,3.383 6.156,3.643 6.06,4Z" style="fill-rule:nonzero;"/>
    </g>
    <g transform="matrix(0.909091,0,0,0.909091,0,0.909091)">
        <path d="M6,12.614L6,18.5C6,18.776 6.224,19 6.5,19L20.5,19C20.776,19 21,18.776 21,18.5L21,4.5C21,4.224 20.776,4 20.5,4L19.5,4C19.224,4 19,3.776 19,3.5C19,3.224 19.224,3 19.5,3L20.5,3C21.327,3 22,3.673 22,4.5L22,18.5C22,19.327 21.327,20 20.5,20L6.5,20C5.673,20 5,19.327 5,18.5L5,12.614L6,12.614ZM5,9.946L5,4.5C5,3.673 5.673,3 6.5,3L7.5,3C7.776,3 8,3.224 8,3.5C8,3.776 7.776,4 7.5,4L6.5,4C6.224,4 6,4.224 6,4.5L6,9.946L5,9.946Z" style="fill-rule:nonzero;"/>
    </g>
    <g transform="matrix(0.909091,0,0,0.909091,3.63636,0.909091)">
        <path d="M9.5,3C9.368,3 9.239,2.947 9.147,2.853C9.055,2.759 9,2.631 9,2.5C9,2.369 9.053,2.239 9.147,2.147C9.24,2.054 9.369,2 9.5,2C9.631,2 9.761,2.053 9.853,2.147C9.946,2.24 10,2.369 10,2.5C10,2.631 9.947,2.76 9.853,2.853C9.76,2.946 9.631,3 9.5,3Z" style="fill-rule:nonzero;"/>
    </g>
    <g transform="matrix(1.0102,0,0,1.0102,0.613222,-0.474555)">
        <path d="M2.531,9.71L1.838,9.003L-0.347,11.147C-0.355,11.155 -0.362,11.163 -0.37,11.171L-0.375,11.177C-0.39,11.194 -0.403,11.212 -0.415,11.231L-0.418,11.235C-0.43,11.254 -0.441,11.275 -0.451,11.295L-0.452,11.299C-0.461,11.32 -0.469,11.34 -0.475,11.362L-0.48,11.378L-0.485,11.4L-0.491,11.436L-0.494,11.472L-0.495,11.495L-0.495,11.508L-0.494,11.519L-0.493,11.544L-0.49,11.566L-0.488,11.58L-0.487,11.585C-0.486,11.595 -0.484,11.605 -0.481,11.615L-0.476,11.636L-0.47,11.654C-0.467,11.665 -0.463,11.676 -0.458,11.687L-0.451,11.704L-0.443,11.722C-0.437,11.732 -0.432,11.743 -0.425,11.753L-0.416,11.768L-0.404,11.786C-0.398,11.795 -0.391,11.803 -0.384,11.812L-0.371,11.828L-0.353,11.847C-0.347,11.853 -0.34,11.86 -0.334,11.866L-0.316,11.881L-0.303,11.891C-0.285,11.905 -0.266,11.918 -0.247,11.929L-0.244,11.931C-0.224,11.942 -0.203,11.952 -0.182,11.96L-0.168,11.966L-0.146,11.973C-0.136,11.976 -0.125,11.979 -0.115,11.981L-0.11,11.983L-0.099,11.985L-0.074,11.989L-0.037,11.994L-0.032,11.994C-0.023,11.994 -0.013,11.995 -0.004,11.995L8.38,11.995C8.653,11.995 8.875,11.773 8.875,11.5C8.875,11.227 8.653,11.005 8.38,11.005L1.211,11.005L2.531,9.71Z"/>
    </g>
    <g transform="matrix(1.31892,0,0,1.31892,-11.8137,-1.8877)">
        <circle cx="11.102" cy="8.238" r="0.379"/>
    </g>
    <g transform="matrix(0.909091,0,0,0.909091,0,0.909091)">
        <path d="M2.695,14.052L2.694,14.053L0.286,11.646C0.277,11.637 0.268,11.628 0.26,11.619L0.21,11.552L0.172,11.48L0.14,11.388L0.125,11.285L0.127,11.205L0.147,11.1L0.183,11.01L0.215,10.954L0.266,10.889L0.334,10.825L0.402,10.779L0.474,10.745L0.569,10.717L0.675,10.707L9.986,10.707C10.29,10.707 10.536,10.953 10.536,11.257C10.536,11.561 10.29,11.807 9.986,11.807L2.002,11.807L3.479,13.284C3.591,13.384 3.662,13.53 3.662,13.693C3.662,13.997 3.415,14.243 3.112,14.243C2.945,14.243 2.796,14.169 2.695,14.052Z"/>
    </g>
</svg>
