<?xml version="1.0" encoding="UTF-8" standalone="no"?>
<!DOCTYPE svg PUBLIC "-//W3C//DTD SVG 1.1//EN" "http://www.w3.org/Graphics/SVG/1.1/DTD/svg11.dtd">
<svg width="100%" height="100%" viewBox="0 0 20 20" version="1.1" xmlns="http://www.w3.org/2000/svg" xmlns:xlink="http://www.w3.org/1999/xlink" xml:space="preserve" xmlns:serif="http://www.serif.com/" style="fill-rule:evenodd;clip-rule:evenodd;stroke-linejoin:round;stroke-miterlimit:2;">
    <g transform="matrix(2.73706,0,0,2.73706,-6.97206,-9.39522)">
        <path d="M8.905,5.607C8.905,5.506 8.824,5.424 8.723,5.424L5.708,5.424C5.607,5.424 5.525,5.506 5.525,5.607L5.525,8.622C5.525,8.722 5.607,8.804 5.708,8.804L8.723,8.804C8.824,8.804 8.905,8.722 8.905,8.622L8.905,5.607ZM8.54,5.789L8.54,8.439C8.54,8.439 5.89,8.439 5.89,8.439C5.89,8.439 5.89,5.789 5.89,5.789L8.54,5.789Z"/>
    </g>
    <g transform="matrix(1,0,0,1,-0.777541,1.23123)">
        <path d="M1.999,6.481L7.718,6.481L7.718,5.481L1.999,5.481L1.999,6.481Z"/>
    </g>
    <g transform="matrix(0.670009,0,0,1,1.60441,3.44289)">
        <path d="M1.753,6.481L7.964,6.481L7.964,5.481L1.753,5.481L1.753,6.481Z"/>
    </g>
    <g transform="matrix(0.968098,0,0,1,0.161853,1.41131)">
        <path d="M-0.167,13.291L20.492,13.291L20.492,12.291L-0.167,12.291L-0.167,13.291Z"/>
    </g>
</svg>
