<?xml version="1.0" encoding="UTF-8" standalone="no"?>
<!DOCTYPE svg PUBLIC "-//W3C//DTD SVG 1.1//EN" "http://www.w3.org/Graphics/SVG/1.1/DTD/svg11.dtd">
<svg width="100%" height="100%" viewBox="0 0 20 20" version="1.1" xmlns="http://www.w3.org/2000/svg" xmlns:xlink="http://www.w3.org/1999/xlink" xml:space="preserve" xmlns:serif="http://www.serif.com/" style="fill-rule:evenodd;clip-rule:evenodd;stroke-linejoin:round;stroke-miterlimit:2;">
    <g transform="matrix(0.906809,0,0,0.906966,-0.603704,0.432855)">
        <g transform="matrix(-0.778121,0,0,0.789185,14.224,-1.0749)">
            <g>
                <g>
                    <g>
                        <path d="M0.5,20C0.37,20 0.242,19.949 0.146,19.854C0.009,19.717 -0.037,19.512 0.03,19.33L2.03,13.83C2.055,13.761 2.095,13.699 2.146,13.647L12.984,2.809C13.179,2.614 13.496,2.614 13.691,2.809L17.191,6.309C17.386,6.504 17.386,6.821 17.191,7.016L6.353,17.854C6.301,17.906 6.239,17.945 6.17,17.97L0.67,19.97C0.614,19.99 0.557,20 0.499,20L0.5,20ZM2.932,14.275L1.336,18.664L5.725,17.068L16.131,6.662L13.338,3.869L2.932,14.275Z" style="fill-rule:nonzero;"/>
                    </g>
                </g>
            </g>
        </g>
        <g transform="matrix(1.00252,0,0,1.00234,-0.202117,0)">
            <path d="M8.713,5.833L9.467,5.833L9.467,5.417C9.467,5.187 9.654,5 9.884,5C10.114,5 10.301,5.187 10.301,5.417L10.301,5.833L18.632,5.833L18.632,5.417C18.632,5.187 18.819,5 19.049,5C19.279,5 19.466,5.187 19.466,5.417L19.466,5.833L21.549,5.833C22.238,5.833 22.798,6.394 22.798,7.083L22.798,18.75C22.798,19.439 22.238,20 21.549,20L7.384,20C6.695,20 6.135,19.439 6.135,18.75L6.135,8.881L7.229,10L6.968,10L6.968,18.75C6.968,18.98 7.154,19.167 7.384,19.167L21.549,19.167C21.779,19.167 21.965,18.98 21.965,18.75L21.965,10L12.944,10L12.906,9.962L12.1,9.167L21.965,9.167L21.965,7.083C21.965,6.853 21.779,6.667 21.549,6.667L19.466,6.667L19.466,7.917C19.466,8.147 19.279,8.333 19.049,8.333C18.819,8.333 18.632,8.147 18.632,7.917L18.632,6.667L10.301,6.667L10.301,7.393C9.782,6.883 9.246,6.357 8.713,5.833Z" style="fill-rule:nonzero;"/>
        </g>
    </g>
</svg>
