<?xml version="1.0" encoding="UTF-8" standalone="no"?>
<!DOCTYPE svg PUBLIC "-//W3C//DTD SVG 1.1//EN" "http://www.w3.org/Graphics/SVG/1.1/DTD/svg11.dtd">
<svg width="100%" height="100%" viewBox="0 0 20 20" version="1.1" xmlns="http://www.w3.org/2000/svg" xmlns:xlink="http://www.w3.org/1999/xlink" xml:space="preserve" xmlns:serif="http://www.serif.com/" style="fill-rule:evenodd;clip-rule:evenodd;stroke-linejoin:round;stroke-miterlimit:2;">
    <g id="_0855-notification-circle" transform="matrix(0.8,0,0,0.8,0,0)">
        <g transform="matrix(1.25,0,0,1.25,0,0)">
            <path d="M9.622,6.952C9.877,6.933 10.103,7.124 10.128,7.378L10.128,15.988C10.089,16.236 9.873,16.42 9.622,16.42C9.37,16.42 9.154,16.236 9.115,15.988L9.115,7.378C9.14,7.124 9.366,6.933 9.622,6.952ZM9.622,3.038C9.899,3.038 10.127,3.266 10.128,3.544L10.128,4.558C10.128,4.835 9.899,5.064 9.622,5.064C9.344,5.064 9.115,4.835 9.115,4.558L9.115,3.544C9.116,3.266 9.344,3.038 9.622,3.038Z"/>
        </g>
        <g transform="matrix(1.34178,0,0,1.34178,-0.610405,-0.25526)">
            <path d="M9.398,0.19C14.334,0.19 18.342,4.198 18.342,9.134C18.342,14.07 14.334,18.077 9.398,18.077C4.462,18.077 0.455,14.07 0.455,9.134C0.455,4.198 4.462,0.19 9.398,0.19ZM9.398,1.122C13.82,1.122 17.41,4.712 17.41,9.134C17.41,13.555 13.82,17.145 9.398,17.145C4.976,17.145 1.387,13.555 1.387,9.134C1.387,4.712 4.976,1.122 9.398,1.122Z"/>
        </g>
    </g>
</svg>
