<?xml version="1.0" encoding="UTF-8" standalone="no"?>
<!DOCTYPE svg PUBLIC "-//W3C//DTD SVG 1.1//EN" "http://www.w3.org/Graphics/SVG/1.1/DTD/svg11.dtd">
<svg width="100%" height="100%" viewBox="0 0 20 20" version="1.1" xmlns="http://www.w3.org/2000/svg" xmlns:xlink="http://www.w3.org/1999/xlink" xml:space="preserve" xmlns:serif="http://www.serif.com/" style="fill-rule:evenodd;clip-rule:evenodd;stroke-linecap:round;stroke-linejoin:round;stroke-miterlimit:1.5;">
    <g transform="matrix(0.925926,0,0,0.925926,-162.292,-142.897)">
        <path d="M184.437,172.419C184.437,172.419 183.239,167.084 184.497,161.682" style="fill:none;stroke:black;stroke-width:1px;"/>
    </g>
    <g transform="matrix(0.925926,0,0,0.925926,-197.81,-142.897)">
        <path d="M222.388,156.605C222.89,154.68 224.513,153.828 225.607,156.61C227.126,156.547 231.372,156.964 232.879,163.336C229.223,160.707 226.739,160.075 225.643,159.926C225.336,162.461 224.66,165.592 224.213,165.601C223.736,165.61 222.94,162.403 222.522,159.937C222.101,160 221.496,160.131 220.719,160.403C220.197,160.586 219.596,160.833 218.921,161.166C217.902,161.668 216.713,162.366 215.364,163.336C216.796,157.285 220.698,156.604 222.388,156.605Z" style="fill:none;stroke:black;stroke-width:1px;"/>
    </g>
    <g transform="matrix(0.925926,0,0,0.925926,-185.966,-142.897)">
        <path d="M202.403,175.378C202.411,173.48 207.026,172.455 211.641,172.417C216.257,172.379 220.873,173.328 220.884,175.378L202.403,175.378Z" style="fill:none;stroke:black;stroke-width:1px;"/>
    </g>
</svg>
