<?xml version="1.0" encoding="UTF-8" standalone="no"?>
<!DOCTYPE svg PUBLIC "-//W3C//DTD SVG 1.1//EN" "http://www.w3.org/Graphics/SVG/1.1/DTD/svg11.dtd">
<svg width="100%" height="100%" viewBox="0 0 20 20" version="1.1" xmlns="http://www.w3.org/2000/svg" xmlns:xlink="http://www.w3.org/1999/xlink" xml:space="preserve" xmlns:serif="http://www.serif.com/" style="fill-rule:evenodd;clip-rule:evenodd;stroke-linejoin:round;stroke-miterlimit:2;">
    <g transform="matrix(1,0,0,1,0,2.72722)">
        <path d="M3.5,14L16.5,14C17.327,14 18,13.327 18,12.5L18,4.5C18,3.673 17.327,3 16.5,3L3.5,3C2.673,3 2,3.673 2,4.5L2,12.5C2,13.327 2.673,14 3.5,14ZM3,4.5C3,4.224 3.224,4 3.5,4L16.5,4C16.776,4 17,4.224 17,4.5L17,12.5C17,12.776 16.776,13 16.5,13L3.5,13C3.224,13 3,12.776 3,12.5L3,4.5Z" style="fill-rule:nonzero;"/>
    </g>
    <g transform="matrix(1,0,0,1,-2.49985,-4.01685)">
        <path d="M6.5,8C5.673,8 5,7.327 5,6.5C5,5.673 5.673,5 6.5,5C7.327,5 8,5.673 8,6.5C8,7.327 7.327,8 6.5,8ZM6.5,6C6.224,6 6,6.224 6,6.5C6,6.776 6.224,7 6.5,7C6.776,7 7,6.776 7,6.5C7,6.224 6.776,6 6.5,6Z" style="fill-rule:nonzero;"/>
    </g>
    <g transform="matrix(1,0,0,1,-2.49985,-4.01685)">
        <path d="M6.5,8C5.673,8 5,7.327 5,6.5C5,5.673 5.673,5 6.5,5C7.327,5 8,5.673 8,6.5C8,7.327 7.327,8 6.5,8ZM6.5,6C6.224,6 6,6.224 6,6.5C6,6.776 6.224,7 6.5,7C6.776,7 7,6.776 7,6.5C7,6.224 6.776,6 6.5,6Z" style="fill-rule:nonzero;"/>
    </g>
    <g transform="matrix(1,0,0,1,4,-4.01685)">
        <path d="M12.5,8C11.673,8 11,7.327 11,6.5C11,5.673 11.673,5 12.5,5C13.327,5 14,5.673 14,6.5C14,7.327 13.327,8 12.5,8ZM12.5,6C12.224,6 12,6.224 12,6.5C12,6.776 12.224,7 12.5,7C12.776,7 13,6.776 13,6.5C13,6.224 12.776,6 12.5,6Z" style="fill-rule:nonzero;"/>
    </g>
    <g transform="matrix(0.580341,0,0,0.580341,2.30819,2.97404)">
        <path d="M3.14,1.898L4.64,5.142C4.859,5.617 5.423,5.824 5.898,5.604C6.373,5.385 6.58,4.821 6.36,4.346L4.86,1.102C4.641,0.627 4.077,0.42 3.602,0.64C3.128,0.859 2.92,1.423 3.14,1.898Z"/>
    </g>
    <g transform="matrix(-0.580341,0,0,0.580341,18.192,2.97404)">
        <path d="M4.86,1.102L6.36,4.346C6.58,4.821 6.373,5.385 5.898,5.604C5.423,5.824 4.859,5.617 4.64,5.142L3.14,1.898C2.92,1.423 3.128,0.859 3.602,0.64C4.077,0.42 4.641,0.627 4.86,1.102Z"/>
    </g>
    <g transform="matrix(0.866369,0,0,0.866369,0.853727,0.410324)">
        <path d="M6.776,8.288C5.241,8.288 3.995,9.534 3.995,11.069C3.995,12.604 5.241,13.85 6.776,13.85C8.311,13.85 9.557,12.604 9.557,11.069C9.557,9.534 8.311,8.288 6.776,8.288ZM6.776,9.557C7.61,9.557 8.288,10.235 8.288,11.069C8.288,11.903 7.61,12.58 6.776,12.58C5.942,12.58 5.264,11.903 5.264,11.069C5.264,10.235 5.942,9.557 6.776,9.557Z"/>
    </g>
    <g transform="matrix(0.866369,0,0,0.866369,7.40508,0.410324)">
        <path d="M6.776,8.288C5.241,8.288 3.995,9.534 3.995,11.069C3.995,12.604 5.241,13.85 6.776,13.85C8.311,13.85 9.557,12.604 9.557,11.069C9.557,9.534 8.311,8.288 6.776,8.288ZM6.776,9.557C7.61,9.557 8.288,10.235 8.288,11.069C8.288,11.903 7.61,12.58 6.776,12.58C5.942,12.58 5.264,11.903 5.264,11.069C5.264,10.235 5.942,9.557 6.776,9.557Z"/>
    </g>
    <g transform="matrix(1,0,0,1,-1.00249,-0.862985)">
        <path d="M8.293,15.487L13.712,15.487C14.015,15.487 14.262,15.24 14.262,14.937C14.262,14.633 14.015,14.387 13.712,14.387L8.293,14.387C7.99,14.387 7.743,14.633 7.743,14.937C7.743,15.24 7.99,15.487 8.293,15.487Z"/>
    </g>
    <path d="M0,20L0,19.227C0,18.4 0.673,17.727 1.5,17.727L18.5,17.727C19.327,17.727 20,18.4 20,19.227L20,20L19,20L19,19.227C19,18.951 18.776,18.727 18.5,18.727L1.5,18.727C1.224,18.727 1,18.951 1,19.227L1,20L0,20Z" style="fill-rule:nonzero;"/>
</svg>
