<?xml version="1.0" encoding="UTF-8" standalone="no"?>
<!DOCTYPE svg PUBLIC "-//W3C//DTD SVG 1.1//EN" "http://www.w3.org/Graphics/SVG/1.1/DTD/svg11.dtd">
<svg width="100%" height="100%" viewBox="0 0 20 20" version="1.1" xmlns="http://www.w3.org/2000/svg" xmlns:xlink="http://www.w3.org/1999/xlink" xml:space="preserve" xmlns:serif="http://www.serif.com/" style="fill-rule:evenodd;clip-rule:evenodd;stroke-linejoin:round;stroke-miterlimit:2;">
    <g transform="matrix(0.832972,0,0,0.832972,-0.797557,0.979246)">
        <path d="M4.595,7.829C2.939,7.829 1.594,9.174 1.594,10.83C1.594,12.486 2.939,13.831 4.595,13.831C6.251,13.831 7.596,12.486 7.596,10.83C7.596,9.174 6.251,7.829 4.595,7.829ZM4.595,9.029C5.589,9.029 6.396,9.836 6.396,10.83C6.396,11.824 5.589,12.631 4.595,12.631C3.601,12.631 2.794,11.824 2.794,10.83C2.794,9.836 3.601,9.029 4.595,9.029Z"/>
    </g>
    <g transform="matrix(1.14521,0,0,1,-0.730327,-0.5)">
        <path d="M5.03,11L16.998,11C17.239,11 17.435,10.776 17.435,10.5C17.435,10.224 17.239,10 16.998,10L5.03,10C4.789,10 4.593,10.224 4.593,10.5C4.593,10.776 4.789,11 5.03,11Z"/>
    </g>
    <g transform="matrix(1.06015,0,0,1.06433,6.92859,-4.54917)">
        <path d="M9.166,5.512L10.722,7.068C10.722,7.068 9.181,8.609 9.181,8.609C8.998,8.792 8.999,9.09 9.183,9.272C9.367,9.455 9.665,9.454 9.849,9.271L11.721,7.399C11.904,7.216 11.904,6.92 11.721,6.737L9.834,4.85C9.65,4.667 9.352,4.666 9.168,4.849C8.984,5.031 8.983,5.329 9.166,5.512Z"/>
    </g>
    <g transform="matrix(0.890904,0,0,1,2.07283,-0.5)">
        <path d="M7.398,10.5L7.398,4.466C7.398,4.334 7.458,4.208 7.562,4.115C7.563,4.114 7.564,4.114 7.564,4.113C7.669,4.02 7.811,3.968 7.959,3.968C10.971,3.97 19,3.975 19,3.975C19.311,3.975 19.563,3.75 19.563,3.473C19.564,3.196 19.311,2.971 19,2.971L7.959,2.964C7.512,2.964 7.082,3.122 6.767,3.404C6.45,3.685 6.272,4.068 6.272,4.466C6.272,4.466 6.272,10.5 6.272,10.5C6.272,10.777 6.524,11.002 6.835,11.002C7.146,11.002 7.398,10.777 7.398,10.5Z"/>
    </g>
    <g transform="matrix(1.06015,0,0,1.06433,6.92859,9.52002)">
        <path d="M9.166,5.512L10.722,7.068C10.722,7.068 9.181,8.609 9.181,8.609C8.998,8.792 8.999,9.09 9.183,9.272C9.367,9.455 9.665,9.454 9.849,9.271L11.721,7.399C11.904,7.216 11.904,6.92 11.721,6.737L9.834,4.85C9.65,4.667 9.352,4.666 9.168,4.849C8.984,5.031 8.983,5.329 9.166,5.512Z"/>
    </g>
    <g transform="matrix(1.06015,0,0,1.06433,6.92859,2.48543)">
        <path d="M9.166,5.512L10.722,7.068C10.722,7.068 9.181,8.609 9.181,8.609C8.998,8.792 8.999,9.09 9.183,9.272C9.367,9.455 9.665,9.454 9.849,9.271L11.721,7.399C11.904,7.216 11.904,6.92 11.721,6.737L9.834,4.85C9.65,4.667 9.352,4.666 9.168,4.849C8.984,5.031 8.983,5.329 9.166,5.512Z"/>
    </g>
    <g transform="matrix(0.811836,0,0,1,3.57511,-0.5)">
        <path d="M8.883,10.5L8.883,16.535C8.883,16.933 9.078,17.314 9.424,17.596C9.425,17.596 9.425,17.596 9.425,17.597C9.772,17.877 10.241,18.036 10.732,18.036L19,18.036C19.341,18.036 19.617,17.811 19.617,17.535C19.617,17.259 19.341,17.034 19,17.034L10.732,17.034C10.569,17.034 10.413,16.981 10.297,16.888C10.182,16.794 10.117,16.667 10.117,16.535L10.117,10.5C10.117,10.224 9.841,9.999 9.5,9.999C9.159,9.999 8.883,10.224 8.883,10.5Z"/>
    </g>
</svg>
