<?xml version="1.0" encoding="UTF-8" standalone="no"?>
<!DOCTYPE svg PUBLIC "-//W3C//DTD SVG 1.1//EN" "http://www.w3.org/Graphics/SVG/1.1/DTD/svg11.dtd">
<svg width="100%" height="100%" viewBox="0 0 200 128" version="1.1" xmlns="http://www.w3.org/2000/svg" xmlns:xlink="http://www.w3.org/1999/xlink" xml:space="preserve" xmlns:serif="http://www.serif.com/" style="fill-rule:evenodd;clip-rule:evenodd;stroke-linecap:round;stroke-linejoin:round;stroke-miterlimit:1.5;">
    <g id="Group_3025" transform="matrix(1,0,0,1,49,120.6)">
        <g transform="matrix(0.642708,0,0,0.750347,-138.511,-633.133)">
            <path d="M189.867,811.298L278.517,811.298L278.517,831.833C278.517,838.797 267.94,844.451 254.912,844.451C245.98,844.451 241.781,840.801 234.561,840.15C226.552,840.755 222.404,844.451 213.472,844.451C200.444,844.451 189.867,838.797 189.867,831.833L189.867,811.298Z" style="fill:white;fill-opacity:0.5;stroke:rgb(38,42,48);stroke-width:2.86px;"/>
        </g>
        <g transform="matrix(0.820335,0,0,0.820335,-118.685,-611.396)">
            <path d="M241.84,635.673C264.295,635.746 282.482,645.098 282.482,656.606L283.934,656.606L275.856,732.004C275.856,742.753 260.495,751.479 241.575,751.479C222.656,751.479 207.295,742.753 207.295,732.004L199.217,656.606L200.668,656.606C200.668,645.053 218.998,635.673 241.575,635.673L241.84,635.673Z" style="fill:white;fill-opacity:0.5;"/>
        </g>
        <g transform="matrix(0.820335,0,0,0.820335,-118.685,-611.396)">
            <path d="M283.934,656.606L275.856,732.004C275.856,742.753 260.495,751.479 241.575,751.479C222.656,751.479 207.295,742.753 207.295,732.004L199.217,656.606" style="fill:none;stroke:rgb(38,42,48);stroke-width:2.44px;"/>
        </g>
        <g transform="matrix(0.642708,0,0,0.750347,-138.511,-633.133)">
            <path d="M234.232,803.619C240.447,803.532 245.98,798.68 254.912,798.68C267.94,798.68 278.517,804.334 278.517,811.298C278.517,818.261 267.94,823.915 254.912,823.915C245.98,823.915 241.781,820.266 234.561,819.614C226.552,820.22 222.404,823.915 213.472,823.915C200.444,823.915 189.867,818.261 189.867,811.298C189.867,804.334 200.444,798.68 213.472,798.68C222.404,798.68 228.14,803.704 234.232,803.619Z" style="fill:white;stroke:rgb(38,42,48);stroke-width:2.86px;"/>
        </g>
        <g transform="matrix(0.820335,0,0,0.820335,-18.9068,-538.49)">
            <path d="M119.945,543.409L121.476,543.421L122.996,543.458L124.502,543.519L125.995,543.604L127.474,543.713L128.938,543.844L130.386,543.999L131.818,544.175L133.233,544.374L134.63,544.594L136.008,544.835L137.367,545.097L138.706,545.38L140.024,545.682L141.063,545.939L142.087,546.207L143.098,546.488L144.093,546.781L145.073,547.086L145.294,547.157C157.147,550.991 165.466,557.434 167.16,564.905L167.29,565.554L167.4,566.326L167.463,567.105L167.478,567.742L167.478,574.783C167.478,588.208 146.179,599.107 119.945,599.107C93.71,599.107 72.411,588.208 72.411,574.783L72.411,567.732C72.411,554.308 93.71,543.409 119.945,543.409ZM119.945,546.8C142.522,546.8 160.852,556.179 160.852,567.732C160.852,579.286 142.522,588.665 119.945,588.665C97.368,588.665 79.038,579.286 79.038,567.732C79.038,556.179 97.368,546.8 119.945,546.8Z" style="fill:white;"/>
        </g>
        <g transform="matrix(0.820335,0,0,0.820335,-118.685,-611.396)">
            <path d="M241.575,632.282C241.678,632.282 241.78,632.282 241.882,632.283L242.189,632.284L242.496,632.287L242.801,632.29L243.107,632.295L243.412,632.3L243.716,632.306L244.02,632.314L244.323,632.322L244.929,632.342L245.23,632.353L245.532,632.365L245.833,632.379L246.128,632.392L246.428,632.408L246.727,632.424L247.323,632.458L247.62,632.477L247.917,632.497L248.213,632.518L248.508,632.539L248.803,632.562L249.097,632.586L249.105,632.586L249.391,632.61L249.399,632.611L249.684,632.635L249.692,632.636L249.977,632.662L249.985,632.662L250.269,632.689L250.277,632.69L250.56,632.717L250.569,632.718L250.851,632.746L250.86,632.747L251.15,632.777L251.44,632.808L251.729,632.839L252.305,632.905L252.592,632.94L252.878,632.975L253.164,633.011L253.449,633.048L253.733,633.086L254.017,633.125L254.3,633.165L254.864,633.247L255.144,633.289L255.424,633.332L255.704,633.376L255.982,633.421L256.26,633.467L256.538,633.514L256.814,633.561L257.09,633.609L257.364,633.658L257.639,633.708L257.912,633.759L258.185,633.811L258.456,633.863L258.727,633.916L258.997,633.97L259.267,634.025L259.535,634.081L259.803,634.138L260.07,634.195L260.336,634.253L260.602,634.312L261.13,634.432L261.654,634.556L261.915,634.619L262.175,634.682L262.435,634.747L262.693,634.812L262.951,634.878L263.463,635.012L263.698,635.075L263.718,635.081L263.952,635.144L263.972,635.15L264.225,635.22L264.477,635.29L264.728,635.362L264.978,635.434L265.228,635.507L265.476,635.58L265.97,635.73L266.46,635.882L266.703,635.96L266.924,636.031C278.778,639.865 287.097,646.307 288.79,653.778L288.799,653.814L288.832,653.967L288.856,654.084L288.863,654.12L288.893,654.274L288.92,654.427L288.946,654.581L288.97,654.735L288.992,654.89L289.004,654.984L289.008,655.007L289.008,655.015L289.012,655.045L289.023,655.135L289.027,655.171L289.031,655.2L289.04,655.287L289.044,655.327L289.047,655.355L289.055,655.439L289.059,655.483L289.061,655.51L289.068,655.591L289.072,655.64L289.074,655.666L289.079,655.744L289.083,655.797L289.085,655.822L289.089,655.896L289.091,655.94L289.092,655.954L289.096,656.049L289.099,656.096L289.099,656.112L289.1,656.135L289.102,656.202L289.104,656.253L289.104,656.27L289.105,656.292L289.106,656.355L289.107,656.409L289.108,656.428L289.108,656.509L289.109,656.566L289.109,663.656C289.109,677.081 267.81,687.98 241.575,687.98C215.341,687.98 194.042,677.081 194.042,663.656L194.042,656.606C194.042,643.181 215.341,632.282 241.575,632.282Z" style="fill:none;stroke:rgb(38,42,48);stroke-width:2.44px;"/>
        </g>
        <g transform="matrix(0.820335,0,0,0.820335,-118.685,-611.396)">
            <path d="M220.321,674.473C226.46,676.358 233.645,677.442 241.322,677.442C246.86,677.442 252.143,676.878 256.963,675.855L245.788,641.25L245.771,641.198C245.406,640.113 244.65,639.207 243.589,638.497L243.588,638.496C243.324,638.32 243.042,638.155 242.742,638.003L232.7,632.148L218.303,636.797L213.58,647.424C213.427,647.72 213.296,648.015 213.187,648.308L213.186,648.309C212.732,649.528 212.652,650.724 213.01,651.835L220.321,674.473Z" style="fill:white;stroke:rgb(38,42,48);stroke-width:2.44px;stroke-linejoin:miter;stroke-miterlimit:10;"/>
        </g>
        <g transform="matrix(-0.476693,0.153933,0.329004,1.01885,10.6662,-845.203)">
            <path d="M338.127,683.099C338.127,683.099 334.147,695.777 331.494,697.838C328.842,699.898 319.099,698.344 321.29,696.193C324.891,692.658 326.894,682.334 326.894,682.334L338.127,683.099Z" style="fill:white;stroke:rgb(38,42,48);stroke-width:2.39px;stroke-linecap:butt;stroke-miterlimit:10;"/>
        </g>
        <g transform="matrix(-0.780643,0.252084,0.252084,0.780643,166.441,-712.912)">
            <path d="M356.667,684.023L356.671,684.038L356.676,684.062L356.681,684.083C356.685,684.102 356.688,684.121 356.692,684.14L356.698,684.172L356.703,684.209L356.707,684.233L356.711,684.262L356.714,684.293L356.718,684.332L356.72,684.355L356.722,684.384L356.723,684.411L356.724,684.433L356.725,684.458L356.725,684.506C356.725,686.634 353.362,688.364 349.21,688.377L349.161,688.377C344.986,688.377 341.596,686.643 341.596,684.506L341.596,684.479L341.597,684.445L341.598,684.431L341.6,684.383L341.604,684.323L341.609,684.283L341.611,684.26L341.615,684.229L341.619,684.202L341.624,684.172L341.63,684.14C341.633,684.121 341.637,684.102 341.641,684.083L341.646,684.062L341.651,684.038L341.655,684.023L341.655,672.306L356.667,672.306L356.667,684.023Z" style="fill:white;stroke:rgb(38,42,48);stroke-width:2.44px;"/>
        </g>
        <g transform="matrix(-0.0585488,0.0925215,0.0860138,0.0544306,81.6563,-231.404)">
            <ellipse cx="982.728" cy="649.456" rx="34.753" ry="32.84" style="fill:white;stroke:rgb(38,42,48);stroke-width:18.92px;stroke-linejoin:miter;stroke-miterlimit:10;"/>
        </g>
        <g transform="matrix(-0.780643,0.252084,0.252084,0.780643,169.936,-581.891)">
            <path d="M286.062,501.523L286.155,501.537L286.062,501.523L305.775,500.037L319.053,502.024L318.998,512.334L304.026,529.066L290.755,527.07L290.748,527.078L276.934,525.001L276.934,510.651L286.062,501.523Z" style="fill:white;stroke:rgb(38,42,48);stroke-width:2.44px;stroke-miterlimit:10;"/>
        </g>
        <g transform="matrix(-0.780643,0.252084,0.252084,0.780643,169.936,-581.891)">
            <path d="M279.944,515.846C281.463,514.671 283.816,514.786 285.55,516.229C287.485,517.84 287.932,520.51 286.577,522.242C286.554,522.271 286.531,522.3 286.507,522.328C286.44,522.409 286.37,522.486 286.297,522.559C286.297,522.559 283.531,525.705 283.509,525.732C283.443,525.811 283.304,525.959 283.304,525.959C281.819,527.464 279.215,527.459 277.337,525.896C275.382,524.268 274.946,521.559 276.353,519.829L279.944,515.846Z" style="fill:white;stroke:rgb(38,42,48);stroke-width:2.44px;stroke-linejoin:miter;stroke-miterlimit:10;"/>
        </g>
        <g transform="matrix(-0.780643,0.252084,0.252084,0.780643,169.936,-581.891)">
            <path d="M291.972,549.646C291.972,549.646 305.958,555.307 316.431,549.577" style="fill:none;stroke:rgb(38,42,48);stroke-width:2.44px;stroke-miterlimit:10;"/>
        </g>
        <g transform="matrix(-0.780643,0.252084,0.252084,0.780643,169.936,-581.891)">
            <path d="M278.625,522.246L280.06,523.681" style="fill:none;stroke:rgb(38,42,48);stroke-width:2.44px;stroke-miterlimit:10;"/>
        </g>
        <g transform="matrix(0.820335,0,0,0.820335,-118.685,-611.396)">
            <path d="M280.28,649.819C281.707,651.947 282.482,654.23 282.482,656.606C282.482,668.159 264.153,677.538 241.575,677.538C218.998,677.538 200.668,668.159 200.668,656.606C200.668,654.23 201.443,651.947 202.87,649.819" style="fill:none;stroke:rgb(38,42,48);stroke-width:2.44px;"/>
        </g>
        <g transform="matrix(0.820335,0,0,0.820335,-118.685,-611.396)">
            <g transform="matrix(1,0,0,1,-6.90265,-2.6071)">
                <path d="M273.261,674.115C267.837,675.776 258.548,678.963 241.528,678.181C241.464,680.078 241.575,700.914 241.575,700.914C241.575,700.914 232.793,707.338 230.098,708.993C223.23,713.211 228.388,723.229 234.933,718.115C235.106,717.981 241.515,713.611 241.515,713.611C241.515,713.611 241.484,732.701 241.575,737.299C241.799,748.521 276.235,740.736 275.982,730.047C275.807,722.641 275.868,688.291 275.893,676.922C275.898,674.618 274.929,673.605 273.261,674.115Z" style="fill:white;stroke:rgb(38,42,48);stroke-width:2.44px;stroke-linejoin:miter;stroke-miterlimit:10;"/>
            </g>
            <g transform="matrix(1,0,0,1,-78.928,0.974183)">
                <path d="M322.137,712.529L322.137,739.207" style="fill:none;stroke:rgb(38,42,48);stroke-width:2.44px;stroke-linejoin:miter;stroke-miterlimit:10;"/>
            </g>
            <g transform="matrix(1,0,0,1,-70.3312,-0.20625)">
                <path d="M322.137,712.529L322.137,739.207" style="fill:none;stroke:rgb(38,42,48);stroke-width:2.44px;stroke-linejoin:miter;stroke-miterlimit:10;"/>
            </g>
            <g transform="matrix(1,0,0,1,-61.7344,-2.75099)">
                <path d="M322.297,713.972L322.137,739.207" style="fill:none;stroke:rgb(38,42,48);stroke-width:2.44px;stroke-linejoin:miter;stroke-miterlimit:10;"/>
            </g>
        </g>
        <g transform="matrix(0.820335,0,0,0.820335,-142.974,-631.414)">
            <path d="M166.028,745.376L166.757,745.324" style="fill:none;stroke:rgb(38,42,48);stroke-width:2.44px;stroke-miterlimit:10;"/>
        </g>
        <g transform="matrix(0.820335,0,0,0.820335,-134.771,-639.618)">
            <path d="M166.028,745.376L166.757,745.324" style="fill:none;stroke:rgb(38,42,48);stroke-width:2.44px;stroke-miterlimit:10;"/>
        </g>
        <g transform="matrix(0.820335,0,0,0.820335,-134.771,-639.618)">
            <path d="M166.028,745.376L166.757,745.324" style="fill:none;stroke:rgb(38,42,48);stroke-width:2.44px;stroke-miterlimit:10;"/>
        </g>
        <g transform="matrix(0.820335,0,0,0.820335,-126.574,-637.236)">
            <path d="M166.028,745.376L166.757,745.324" style="fill:none;stroke:rgb(38,42,48);stroke-width:2.44px;stroke-miterlimit:10;"/>
        </g>
        <g transform="matrix(0.820335,0,0,0.820335,-126.574,-637.236)">
            <path d="M166.028,745.376L166.757,745.324" style="fill:none;stroke:rgb(38,42,48);stroke-width:2.44px;stroke-miterlimit:10;"/>
        </g>
        <g transform="matrix(0.820335,0,0,0.820335,-115.09,-637.236)">
            <path d="M166.028,745.376L166.757,745.324" style="fill:none;stroke:rgb(38,42,48);stroke-width:2.44px;stroke-miterlimit:10;"/>
        </g>
        <g transform="matrix(0.820335,0,0,0.820335,-116.73,-632.314)">
            <path d="M166.028,745.376L166.757,745.324" style="fill:none;stroke:rgb(38,42,48);stroke-width:2.44px;stroke-miterlimit:10;"/>
        </g>
        <g transform="matrix(0.820335,0,0,0.820335,-133.137,-632.314)">
            <path d="M166.028,745.376L166.757,745.324" style="fill:none;stroke:rgb(38,42,48);stroke-width:2.44px;stroke-miterlimit:10;"/>
        </g>
        <g transform="matrix(0.820335,0,0,0.820335,-143.801,-639.697)">
            <path d="M166.028,745.376L166.757,745.324" style="fill:none;stroke:rgb(38,42,48);stroke-width:2.44px;stroke-miterlimit:10;"/>
        </g>
        <g transform="matrix(0.820335,0,0,0.820335,-108.527,-639.697)">
            <path d="M166.028,745.376L166.757,745.324" style="fill:none;stroke:rgb(38,42,48);stroke-width:2.44px;stroke-miterlimit:10;"/>
        </g>
        <g transform="matrix(0.820335,0,0,0.820335,-106.886,-633.135)">
            <path d="M166.028,745.376L166.757,745.324" style="fill:none;stroke:rgb(38,42,48);stroke-width:2.44px;stroke-miterlimit:10;"/>
        </g>
    </g>
</svg>
