<?xml version="1.0" encoding="UTF-8" standalone="no"?>
<!DOCTYPE svg PUBLIC "-//W3C//DTD SVG 1.1//EN" "http://www.w3.org/Graphics/SVG/1.1/DTD/svg11.dtd">
<svg width="100%" height="100%" viewBox="0 0 200 128" version="1.1" xmlns="http://www.w3.org/2000/svg" xmlns:xlink="http://www.w3.org/1999/xlink" xml:space="preserve" xmlns:serif="http://www.serif.com/" style="fill-rule:evenodd;clip-rule:evenodd;stroke-linecap:round;stroke-linejoin:round;">
    <g id="Group_3103" transform="matrix(1,0,0,0.984063,54.5,146.023)">
        <g id="Path_974" transform="matrix(1,0,0,1,-5.083,-4.276)">
            <path d="M67.887,-88.762C67.136,-88.418 66.355,-88.089 65.546,-87.775L65.119,-87.587L64.73,-87.463C63.485,-86.994 62.175,-86.58 60.811,-86.212L60.628,-86.153L60.165,-86.053L58.138,-85.553L56.227,-85.195L55.711,-85.082L55.711,-84.944C52.091,-84.33 48.426,-84.024 44.754,-84.031C43.7,-84.031 42.658,-84.055 41.629,-84.103L59.46,-107.919L86.193,-113.214L67.887,-88.762Z" style="fill:white;fill-opacity:0.5;"/>
        </g>
        <g id="Path_975" transform="matrix(1,0,0,1,-5.261,0)">
            <path d="M43.049,-128.989L59.628,-112.2L86.371,-117.487L56.823,-147.387L43.049,-128.989Z" style="fill:white;stroke:rgb(38,42,48);stroke-width:2px;"/>
        </g>
        <g id="Path_976" transform="matrix(1,0,0,1,-3.407,0)">
            <path d="M54.969,-147.388L41.186,-128.977L28.235,-142.112L54.969,-147.388Z" style="fill:white;fill-opacity:0.5;stroke:rgb(38,42,48);stroke-width:2px;"/>
        </g>
        <g id="Path_977" transform="matrix(1,0,0,1,-1.404,-0.753)">
            <path d="M12.223,-138.6L26.24,-141.366" style="fill:none;fill-rule:nonzero;stroke:rgb(38,42,48);stroke-width:2px;"/>
        </g>
        <g id="Path_978" transform="matrix(1,0,0,1,0,-0.753)">
            <path d="M19.347,-90.955L1,-109.532L24.835,-141.371L54.393,-111.465L36.534,-87.625C30.668,-87.842 24.87,-88.966 19.347,-90.955Z" style="fill:white;stroke:rgb(38,42,48);stroke-width:2px;"/>
        </g>
        <g id="Path_979" transform="matrix(1,0,0,1,-8.67,-4.267)">
            <path d="M70.295,-94.192L83.695,-79.916L97.822,-94.656L89.7,-113.285L70.295,-94.192Z" style="fill:white;stroke:rgb(38,42,48);stroke-width:2px;"/>
        </g>
        <g id="Path_980" transform="matrix(1,0,0,1,-1.212,-0.753)">
            <path d="M28.008,-109.295L37.042,-121.362L33.234,-104.075L35.916,-101.395L55.606,-111.464L26.047,-141.371L10.685,-126.6L28.008,-109.295Z" style="fill:white;stroke:rgb(38,42,48);stroke-width:2px;"/>
        </g>
        <g id="Path_981" transform="matrix(1,0,0,1,-0.611,-5.932)">
            <path d="M5.881,-99.976L19.046,-86.131L13.163,-89.15L8.663,-93.03L5.881,-99.976Z" style="fill:rgb(37,41,47);"/>
        </g>
        <g id="Path_982" transform="matrix(1,0,0,1,-5.261,0)">
            <path d="M43.049,-128.989L59.628,-112.2L86.371,-117.487L56.823,-147.387L43.049,-128.989Z" style="fill:white;stroke:rgb(38,42,48);stroke-width:2px;"/>
        </g>
        <g id="Path_983" transform="matrix(1,0,0,1,-3.407,0)">
            <path d="M54.969,-147.388L41.186,-128.977L28.235,-142.112L54.969,-147.388Z" style="fill:white;fill-opacity:0.5;stroke:rgb(38,42,48);stroke-width:2px;"/>
        </g>
        <g id="Path_984" transform="matrix(1,0,0,1,-1.404,-0.753)">
            <path d="M12.223,-138.6L26.24,-141.366" style="fill:none;fill-rule:nonzero;stroke:rgb(38,42,48);stroke-width:2px;"/>
        </g>
        <g id="Path_985" transform="matrix(1,0,0,1,-0.611,-5.951)">
            <path d="M5.881,-99.819C5.881,-90.104 21.295,-82.219 40.281,-82.219C59.267,-82.219 74.681,-90.107 74.681,-99.819L74.681,-30.967C74.681,-21.252 59.267,-13.367 40.281,-13.367C21.295,-13.367 5.881,-21.255 5.881,-30.967L5.881,-99.819Z" style="fill:white;fill-opacity:0.5;stroke:rgb(38,42,48);stroke-width:2px;"/>
        </g>
        <g id="Path_986" transform="matrix(1,0,0,1,0,-0.753)">
            <path d="M19.347,-90.955L1,-109.532L24.835,-141.371L54.393,-111.465L36.534,-87.625C30.668,-87.842 24.87,-88.966 19.347,-90.955Z" style="fill:white;stroke:rgb(38,42,48);stroke-width:2px;"/>
        </g>
        <g id="Path_987" transform="matrix(1,0,0,1,-8.67,-4.267)">
            <path d="M70.295,-94.192L83.695,-79.916L97.822,-94.656L89.7,-113.285L70.295,-94.192Z" style="fill:white;stroke:rgb(38,42,48);stroke-width:2px;"/>
        </g>
        <g id="Path_988" transform="matrix(1,0,0,1,-1.212,-0.753)">
            <path d="M28.008,-109.295L37.042,-121.362L33.234,-104.075L35.916,-101.395L55.606,-111.464L26.047,-141.371L10.685,-126.6L28.008,-109.295Z" style="fill:white;stroke:rgb(38,42,48);stroke-width:2px;"/>
        </g>
        <g id="Path_989" transform="matrix(1,0,0,1,-0.611,-5.932)">
            <path d="M5.881,-99.976L19.046,-86.131L13.163,-89.15L8.663,-93.03L5.881,-99.976Z" style="fill:rgb(38,42,48);"/>
        </g>
    </g>
</svg>
