<?xml version="1.0" encoding="UTF-8" standalone="no"?>
<!DOCTYPE svg PUBLIC "-//W3C//DTD SVG 1.1//EN" "http://www.w3.org/Graphics/SVG/1.1/DTD/svg11.dtd">
<svg width="100%" height="100%" viewBox="0 0 200 128" version="1.1" xmlns="http://www.w3.org/2000/svg" xmlns:xlink="http://www.w3.org/1999/xlink" xml:space="preserve" xmlns:serif="http://www.serif.com/" style="fill-rule:evenodd;clip-rule:evenodd;stroke-linecap:round;stroke-linejoin:round;">
    <g id="Group_3100" transform="matrix(1,0,0,1,8.4,126.702)">
        <path id="Path_877" d="M45.031,-60.38L40.257,-67.462" style="fill:none;fill-rule:nonzero;stroke:black;stroke-width:2px;"/>
        <path id="Path_878" d="M51.476,-61.677L55.119,-71.977" style="fill:none;fill-rule:nonzero;stroke:black;stroke-width:2px;"/>
        <path id="Path_879" d="M57.074,-56.327L64.437,-59.927" style="fill:none;fill-rule:nonzero;stroke:black;stroke-width:2px;"/>
        <path id="Path_880" d="M16.305,-48.386C29.852,-51.328 43.547,-42.904 49.814,-54.936" style="fill:none;fill-rule:nonzero;stroke:rgb(38,42,48);stroke-width:2px;stroke-linejoin:miter;stroke-miterlimit:10;"/>
        <path id="Path_881" d="M128.353,-16.621C128.647,-23.597 135.369,-29.184 143.606,-29.184C151.843,-29.184 158.565,-23.598 158.859,-16.621L158.869,-16.621L158.869,-8.81C158.869,-4.5 152.03,-1 143.606,-1C135.182,-1 128.343,-4.5 128.343,-8.811L128.343,-16.622L128.353,-16.621Z" style="fill:white;stroke:rgb(38,42,48);stroke-width:2px;stroke-miterlimit:10;"/>
        <path id="Path_882" d="M39.314,-18.777C39.314,-18.777 52.736,-19.644 52.736,-27.833C52.736,-37.186 46.312,-36.127 36.818,-36.127C12.013,-36.127 5.162,-45.579 16.305,-48.385" style="fill:none;fill-rule:nonzero;stroke:rgb(38,42,48);stroke-width:2px;stroke-linejoin:miter;stroke-miterlimit:10;"/>
        <path id="Path_883" d="M171.543,-49.245C156.33,-43.826 111.613,-52.251 108.977,-42.65C107.319,-36.613 118.177,-35.566 118.177,-35.566C135.165,-33.928 135.165,-60.555 135.165,-76.919" style="fill:none;fill-rule:nonzero;stroke:rgb(38,42,48);stroke-width:2px;stroke-linejoin:miter;stroke-miterlimit:10;"/>
        <path id="Path_884" d="M143.606,-5.435C135.182,-5.435 128.343,-8.935 128.343,-13.245C128.343,-17.555 135.182,-21.056 143.606,-21.056C152.03,-21.056 158.869,-17.556 158.869,-13.245C158.869,-8.934 152.03,-5.435 143.606,-5.435Z" style="fill:none;fill-rule:nonzero;stroke:rgb(38,42,48);stroke-width:2px;stroke-miterlimit:10;stroke-dasharray:6,6,6,6;"/>
        <path id="Path_885" d="M143.606,-22.9C152.03,-22.9 158.869,-19.4 158.869,-15.089C158.869,-10.778 152.03,-7.279 143.606,-7.279C135.182,-7.279 128.343,-10.779 128.343,-15.089C128.343,-19.399 135.182,-22.9 143.606,-22.9Z" style="fill:white;"/>
        <path id="Path_886" d="M128.353,-16.621C128.647,-23.597 135.369,-29.184 143.606,-29.184C151.843,-29.184 158.565,-23.598 158.859,-16.621L158.869,-16.621L158.869,-8.81C158.869,-4.5 152.03,-1 143.606,-1C135.182,-1 128.343,-4.5 128.343,-8.811L128.343,-16.622L128.353,-16.621Z" style="fill:none;fill-rule:nonzero;stroke:rgb(38,42,48);stroke-width:2px;stroke-miterlimit:10;"/>
        <path id="Path_887" d="M139.737,-94.907L147.475,-94.907L147.475,-24.432L139.737,-24.432L139.737,-94.907" style="fill:white;stroke:rgb(38,42,48);stroke-width:2px;stroke-miterlimit:10;"/>
        <path id="Path_888" d="M139.737,-24.431L147.475,-24.431" style="fill:none;fill-rule:nonzero;stroke:rgb(38,42,48);stroke-width:2px;stroke-linejoin:miter;stroke-miterlimit:10;"/>
        <path id="Path_889" d="M139.737,-24.431L147.475,-24.431" style="fill:none;fill-rule:nonzero;stroke:white;stroke-width:3px;stroke-linejoin:miter;stroke-miterlimit:10;"/>
        <path id="Path_890" d="M52.767,-8.045L61.553,-18.411L61.553,-27.111L45.603,-29.511L36.813,-19.145L36.813,-10.445L52.759,-8.045L52.767,-8.045Z" style="fill:white;stroke:rgb(38,42,48);stroke-width:2px;stroke-miterlimit:10;"/>
        <path id="Path_891" d="M43.012,-8.076C43.012,-8.076 47.751,-13.323 47.75,-13.323L48.245,-13.714C48.814,-14.001 49.503,-13.92 49.989,-13.508C50.654,-12.944 50.737,-11.934 50.174,-11.269L47.774,-8.614L45.487,-6.091C45.189,-5.679 44.71,-5.435 44.201,-5.435C43.33,-5.436 42.614,-6.152 42.613,-7.023C42.612,-7.411 42.754,-7.786 43.012,-8.076Z" style="fill:white;stroke:rgb(38,42,48);stroke-width:2px;stroke-miterlimit:10;"/>
        <path id="Path_892" d="M34.464,-9.625L39.2,-14.873L39.695,-15.264C40.264,-15.551 40.953,-15.47 41.439,-15.058C42.104,-14.494 42.187,-13.484 41.624,-12.819L39.224,-10.164L36.939,-7.641C36.641,-7.229 36.162,-6.985 35.653,-6.985C34.782,-6.986 34.066,-7.702 34.065,-8.573C34.065,-8.961 34.207,-9.335 34.464,-9.625Z" style="fill:white;stroke:rgb(38,42,48);stroke-width:2px;stroke-miterlimit:10;"/>
        <path id="Path_893" d="M128.343,-116.592C128.343,-120.903 135.182,-124.403 143.606,-124.403C152.03,-124.403 158.869,-120.903 158.869,-116.592L158.869,-73.829C158.869,-69.518 152.03,-66.018 143.606,-66.018C135.182,-66.018 128.343,-69.518 128.343,-73.829L128.343,-116.592Z" style="fill:white;stroke:rgb(38,42,48);stroke-width:2px;stroke-miterlimit:10;"/>
        <path id="Path_894" d="M156.052,-112.072C153.284,-110.081 148.74,-108.782 143.606,-108.782C138.472,-108.782 133.928,-110.082 131.16,-112.072" style="fill:none;fill-rule:nonzero;stroke:rgb(37,41,47);stroke-opacity:0.25;stroke-width:2px;stroke-miterlimit:10;"/>
    </g>
</svg>
