<?xml version="1.0" encoding="UTF-8" standalone="no"?>
<!DOCTYPE svg PUBLIC "-//W3C//DTD SVG 1.1//EN" "http://www.w3.org/Graphics/SVG/1.1/DTD/svg11.dtd">
<svg width="100%" height="100%" viewBox="0 0 200 128" version="1.1" xmlns="http://www.w3.org/2000/svg" xmlns:xlink="http://www.w3.org/1999/xlink" xml:space="preserve" xmlns:serif="http://www.serif.com/" style="fill-rule:evenodd;clip-rule:evenodd;stroke-linejoin:round;stroke-miterlimit:2;">
    <g id="Group_3182" transform="matrix(1,0,0,1,62.5,121.025)">
        <path id="Path_1261" d="M8.459,-53.187L8.459,-96.967L58.485,-89.93L58.485,-27.315L8.459,-34.352L8.459,-38.264L1,-39.313L1,-44.847L8.459,-53.187ZM37.889,-34.093L51.768,-49.609L51.768,-55.143L37.889,-39.626L37.889,-34.093ZM11.759,-37.8L25.638,-53.316L25.638,-58.85L11.759,-43.333L11.759,-37.8ZM20.554,-56.821L36.443,-74.348L36.443,-86.836L20.554,-69.309L20.554,-56.821Z" style="fill:white;"/>
        <rect id="Path_1262" x="36.618" y="-34.014" width="8.306" height="33.014" style="fill:white;fill-opacity:0.5;"/>
        <path id="Path_1263" d="M58.485,-89.93L73.085,-106.03L73.085,-44.221L58.485,-27.313L58.485,-89.93Z" style="fill:white;fill-opacity:0.5;"/>
        <path id="Path_1264" d="M36.376,-86.736L20.487,-69.209L20.487,-56.721L36.376,-74.248L36.376,-86.736Z" style="fill:white;fill-opacity:0.5;"/>
        <path id="Path_1265" d="M22.841,-113.049L8.459,-96.967L58.485,-89.93L73.085,-106.03L22.841,-113.049Z" style="fill:white;"/>
        <path id="Path_1266" d="M11.759,-37.8L11.759,-43.334L25.638,-58.85L25.638,-53.316L11.759,-37.8Z" style="fill:white;fill-opacity:0.5;"/>
        <path id="Path_1267" d="M37.89,-34.084L37.89,-39.618L51.769,-55.135L51.769,-49.6L37.89,-34.084Z" style="fill:white;fill-opacity:0.5;"/>
        <path id="Path_1268" d="M36.757,-31.382C36.469,-31.424 36.176,-31.337 35.957,-31.146C35.739,-30.956 35.613,-30.68 35.613,-30.391L35.613,-1C35.613,-0.451 36.064,0 36.613,0L44.919,0C45.468,-0 45.919,-0.451 45.919,-1L45.919,-29.223C45.919,-29.719 45.549,-30.144 45.058,-30.213L36.757,-31.382ZM37.618,-29.241L43.924,-28.354L43.924,-2L37.618,-2L37.618,-29.241Z" style="fill:rgb(38,42,48);"/>
        <path id="Path_1269" d="M8.32,-95.977L57.485,-89.061L57.485,-27.315C57.485,-26.766 57.936,-26.315 58.485,-26.315C59.034,-26.315 59.485,-26.766 59.485,-27.315L59.485,-89.93C59.485,-90.426 59.115,-90.851 58.624,-90.92L8.6,-97.957C8.554,-97.964 8.507,-97.967 8.46,-97.967C7.964,-97.967 7.539,-97.597 7.47,-97.106C7.394,-96.563 7.777,-96.054 8.32,-95.977Z" style="fill:rgb(38,42,48);"/>
        <path id="Path_1270" d="M59.225,-89.258L73.825,-105.358C73.992,-105.542 74.084,-105.782 74.084,-106.03C74.084,-106.312 73.965,-106.582 73.756,-106.771C73.572,-106.938 73.333,-107.03 73.084,-107.03C72.802,-107.03 72.532,-106.91 72.343,-106.701L57.743,-90.601C57.375,-90.195 57.406,-89.557 57.812,-89.189C57.996,-89.022 58.236,-88.93 58.484,-88.93C58.766,-88.93 59.036,-89.049 59.225,-89.258Z" style="fill:rgb(38,42,48);"/>
        <path id="Path_1271" d="M30.861,-88.631C30.533,-88.677 30.203,-88.557 29.981,-88.312L14.092,-70.785C13.925,-70.601 13.833,-70.361 13.833,-70.113L13.833,-57.625C13.833,-57.129 14.203,-56.704 14.694,-56.635L20.415,-55.835C20.743,-55.789 21.073,-55.909 21.295,-56.154L37.184,-73.676C37.351,-73.86 37.443,-74.1 37.443,-74.348L37.443,-86.836C37.443,-87.332 37.073,-87.757 36.582,-87.826L30.861,-88.631ZM31.107,-86.577L35.443,-85.967L35.443,-74.734L20.169,-57.885L15.833,-58.495L15.833,-69.728L31.107,-86.577Z" style="fill:rgb(38,42,48);"/>
        <path id="Path_1272" d="M15.833,-60.312C15.833,-60.726 15.576,-61.098 15.19,-61.246C14.804,-61.392 14.365,-61.286 14.09,-60.978L0.255,-45.514C0.091,-45.331 0,-45.093 -0,-44.847L0,-39.313C0,-38.817 0.37,-38.392 0.861,-38.323L11.62,-36.81C11.95,-36.764 12.283,-36.885 12.505,-37.134L26.383,-52.65C26.547,-52.833 26.638,-53.071 26.638,-53.317L26.638,-58.85C26.638,-59.346 26.268,-59.771 25.777,-59.84L22.899,-60.24C22.571,-60.286 22.241,-60.166 22.019,-59.921L20.168,-57.879L15.832,-58.489L15.833,-60.312ZM13.833,-57.694L13.833,-57.625C13.833,-57.129 14.203,-56.704 14.694,-56.635L20.415,-55.835C20.743,-55.789 21.073,-55.909 21.295,-56.154L23.146,-58.196L24.638,-57.986L24.638,-53.7L11.37,-38.864L2,-40.182L2,-44.465L13.833,-57.694Z" style="fill:rgb(38,42,48);"/>
        <path id="Path_1273" d="M7.459,-50.569L9.459,-52.805L9.459,-96.585L23.23,-111.985L72.081,-105.162L72.081,-44.595L58.081,-28.382L9.459,-35.221L9.459,-39.133L7.459,-39.414L7.459,-34.352C7.459,-33.856 7.829,-33.431 8.32,-33.362L58.345,-26.325C58.683,-26.276 59.022,-26.404 59.245,-26.662L73.845,-43.57C74.002,-43.751 74.088,-43.983 74.088,-44.223L74.088,-106.032C74.088,-106.529 73.718,-106.953 73.226,-107.022L22.985,-114.039C22.857,-114.057 22.726,-114.05 22.601,-114.018L22.451,-113.967L22.407,-113.947C22.291,-113.89 22.187,-113.812 22.101,-113.715L7.714,-97.634C7.55,-97.451 7.46,-97.213 7.46,-96.967L7.459,-50.569Z" style="fill:rgb(38,42,48);"/>
        <path id="Path_1274" d="M52.514,-48.943C52.678,-49.126 52.769,-49.364 52.769,-49.61L52.769,-55.144C52.769,-55.64 52.399,-56.065 51.908,-56.134L41.148,-57.647C40.818,-57.693 40.485,-57.572 40.263,-57.323L26.385,-41.806C26.221,-41.623 26.13,-41.385 26.13,-41.139L26.13,-35.605C26.13,-35.109 26.5,-34.684 26.991,-34.615L37.75,-33.1C38.08,-33.053 38.413,-33.175 38.635,-33.423L52.514,-48.943ZM50.769,-49.992L37.5,-35.157L28.13,-36.475L28.13,-40.758L41.4,-55.592L50.77,-54.274L50.769,-49.992Z" style="fill:rgb(38,42,48);"/>
    </g>
</svg>
